<svg width="316" height="316" viewBox="0 0 316 316" fill="none" xmlns="http://www.w3.org/2000/svg">
<rect width="316" height="316" rx="20" fill="#F7F7FB"/>
<path d="M58 81.5157C58 70.47 66.9543 61.5157 78.0001 61.5157L94 61.5157L110 61.5157C121.046 61.5157 130 70.47 130 81.5157V242C130 253.046 121.046 262 110 262H94H78C66.9543 262 58 253.046 58 242V81.5157Z" fill="#7A83F1"/>
<path d="M186 81.5157C186 70.47 194.954 61.5157 206 61.5157L222 61.5157L238 61.5157C249.046 61.5157 258 70.47 258 81.5157V242C258 253.046 249.046 262 238 262H222H206C194.954 262 186 253.046 186 242V81.5157Z" fill="#7A83F1"/>
<path d="M130 197C135.122 197 140.193 195.991 144.925 194.031C149.656 192.071 153.956 189.199 157.577 185.577C161.199 181.956 164.071 177.656 166.031 172.925C167.991 168.193 169 163.122 169 158C169 152.878 167.991 147.807 166.031 143.075C164.071 138.344 161.199 134.044 157.577 130.423C153.956 126.801 149.656 123.929 144.925 121.969C140.193 120.009 135.122 119 130 119L130 158L130 197Z" fill="#7A83F1"/>
<rect width="316" height="316" rx="20" fill="#F7F7FB"/>
<path d="M58 81.5157C58 70.47 66.9543 61.5157 78.0001 61.5157L94 61.5157L110 61.5157C121.046 61.5157 130 70.47 130 81.5157V242C130 253.046 121.046 262 110 262H94H78C66.9543 262 58 253.046 58 242V81.5157Z" fill="#7A83F1"/>
<path d="M186 81.5157C186 70.47 194.954 61.5157 206 61.5157L222 61.5157L238 61.5157C249.046 61.5157 258 70.47 258 81.5157V242C258 253.046 249.046 262 238 262H222H206C194.954 262 186 253.046 186 242V81.5157Z" fill="#7A83F1"/>
<path d="M130 197C135.122 197 140.193 195.991 144.925 194.031C149.656 192.071 153.956 189.199 157.577 185.577C161.199 181.956 164.071 177.656 166.031 172.925C167.991 168.193 169 163.122 169 158C169 152.878 167.991 147.807 166.031 143.075C164.071 138.344 161.199 134.044 157.577 130.423C153.956 126.801 149.656 123.929 144.925 121.969C140.193 120.009 135.122 119 130 119L130 158L130 197Z" fill="#7A83F1"/>
</svg>
